# xmcd
#
# Track frame offsets: 
#        150
#        17992
#        34836
#        51192
#        74694
#        90945
#        107395
#        126619
#        143653
#        166033
#        181337
#        209764
#        226691
#        244395
#        259748
#        277326
#        293104
#        324525
#
# Disc length: 4746 seconds
#
# Revision: 1
# Processed by: cddbd v1.5.2PL0 Copyright (c) Steve Scherf et al.
# Submitted via: ExactAudioCopy v0.95b3
#
DISCID=10128812
DTITLE=Hazell Dean - Always (Deluxe Edition) [CD1] [CRPOPD 96]
DYEAR=2012
DGENRE=Pop
TTITLE0=They Say It's Gonna Rain
TTITLE1=Who's Leaving Who?
TTITLE2=Turn It Into Love
TTITLE3=You're My Rainbow
TTITLE4=Always Doesn't Mean Forever
TTITLE5=Maybe (We Should Call It A Day)
TTITLE6=Walk In My Shoes
TTITLE7=Nothing In My Life
TTITLE8=Danger
TTITLE9=No Fool (For Love) (The Murray 7'' Mix)
TTITLE10=Ain't Nothing Like The Real Thing (duet with Darryl Pandy)
TTITLE11=Stand Up
TTITLE12=Can't Get You Out Of My Mind
TTITLE13=Love Ends, Love Parts
TTITLE14=Walk In My Shoes (Original Version)
TTITLE15=E.S.P. (Extra Sensual Persuasion)
TTITLE16=Who's Leaving Who? (The Boys Are Back In Town Mix)
TTITLE17=Stand Up (Extended Version)
EXTD=
EXTT0=
EXTT1=
EXTT2=
EXTT3=
EXTT4=
EXTT5=
EXTT6=
EXTT7=
EXTT8=
EXTT9=
EXTT10=
EXTT11=
EXTT12=
EXTT13=
EXTT14=
EXTT15=
EXTT16=
EXTT17=
PLAYORDER=
